<svg width="18" height="18" viewBox="0 0 18 18" fill="none" xmlns="http://www.w3.org/2000/svg">
<path d="M4.08333 2.08333H2.08333L11.4583 11.4583L12.5 10.4792M17.6667 16.7917L16.7917 17.6667C16.6953 17.7632 16.5808 17.8398 16.4548 17.8921C16.3288 17.9444 16.1937 17.9713 16.0573 17.9713C15.9209 17.9713 15.7858 17.9444 15.6598 17.8921C15.5338 17.8398 15.4193 17.7632 15.3229 17.6667L12.0729 14.4167L9.28125 17.1875L7.8125 15.7187L9.29167 14.2396L0 4.94792V0H4.94792L14.2396 9.29167L15.7187 7.8125L17.1875 9.28125L14.4062 12.0625L17.6563 15.3125C18.0729 15.7292 18.0729 16.3854 17.6667 16.7917V16.7917Z" fill="black"/>
</svg>
