<svg width="24" height="25" viewBox="0 0 24 25" fill="none" xmlns="http://www.w3.org/2000/svg">
<path d="M21.2473 7.0922C20.5591 4.96454 19.1828 3.5461 17.1183 2.65957V0H15.3978V2.48227H14.7097C12.8172 2.48227 11.2688 3.19149 9.89247 4.60993L9.2043 5.31915L6.7957 4.43262C6.27957 4.25532 5.76344 4.07801 5.07527 4.07801C4.04301 4.07801 3.01075 4.43262 2.15054 5.14184C1.11828 5.85106 0.602151 6.73759 0.258065 7.62411C-0.0860215 8.86525 -0.0860215 9.92908 0.258065 11.1702C0.774194 12.4113 1.29032 13.2979 2.15054 13.8298C1.46237 16.4894 1.9785 18.7943 3.87097 20.7447C5.24731 22.1631 6.7957 22.8723 8.68817 22.8723C9.54839 22.8723 10.0645 22.8723 10.5806 22.695C11.6129 24.1135 12.9892 25 14.7097 25C15.2258 25 15.914 25 16.4301 24.8227C17.4624 24.4681 18.1505 23.7589 18.8387 22.8723C19.5269 21.8085 19.871 20.922 19.871 19.8582C19.871 19.1489 19.871 18.617 19.6989 18.0851L18.8387 15.2482L19.871 14.539C21.2473 13.1206 21.9355 11.1702 21.7634 9.04255H24V7.0922H21.2473ZM5.07527 15.2482C4.04301 14.7163 3.1828 9.92908 3.52688 8.86525C3.87097 7.80142 4.55914 7.44681 5.5914 7.80142L12 10.5C9.24731 11.9184 6.7957 15.7801 5.07527 15.2482ZM15.3978 21.0993C14.3656 21.4539 10.4086 20.922 9.89247 19.8582C9.37635 18.0851 12.6237 15.3369 14 12.5L16.4301 18.7943C16.7742 20.0355 16.4301 20.7447 15.3978 21.0993ZM17.4624 11.7021L16.4301 8.86525L15.914 8.15603L14.7097 7.62411L11.5 6.5C12.1882 5.96809 14.5376 5.31915 15.3978 5.31915C16.2581 5.31915 17.9785 6.38298 18.6667 7.0922C19.3548 7.80142 18.6667 8.68794 18.6667 9.57447C18.3226 10.1064 17.9785 10.9929 17.4624 11.7021Z" fill="white"/>
</svg>
