<svg width="25" height="25" viewBox="0 0 25 25" fill="none" xmlns="http://www.w3.org/2000/svg">
<path d="M12.5 25C10.7639 25 9.13796 24.6704 7.62222 24.0111C6.10556 23.3509 4.78611 22.4593 3.66389 21.3361C2.54074 20.2139 1.64907 18.8944 0.988889 17.3778C0.329629 15.862 0 14.2361 0 12.5C0 10.7639 0.329629 9.1375 0.988889 7.62083C1.64907 6.10509 2.54074 4.78565 3.66389 3.6625C4.78611 2.54028 6.10556 1.64907 7.62222 0.988889C9.13796 0.329629 10.7639 0 12.5 0C14.2361 0 15.8625 0.329629 17.3792 0.988889C18.8949 1.64907 20.2144 2.54028 21.3375 3.6625C22.4597 4.78565 23.3509 6.10509 24.0111 7.62083C24.6704 9.1375 25 10.7639 25 12.5C25 14.2361 24.6704 15.862 24.0111 17.3778C23.3509 18.8944 22.4597 20.2139 21.3375 21.3361C20.2144 22.4593 18.8949 23.3509 17.3792 24.0111C15.8625 24.6704 14.2361 25 12.5 25ZM14.8611 21.9444C16.5972 21.5046 18.1019 20.6481 19.375 19.375C20.6481 18.1019 21.5046 16.5972 21.9444 14.8611L14.8611 21.9444V21.9444ZM12.5347 21.3194L22.1875 11.6667L22.0486 10.6778C22.0023 10.3417 21.9213 10.0116 21.8056 9.6875L11.25 20.2431C11.4352 20.4514 11.638 20.6426 11.8583 20.8167C12.0778 20.9898 12.3032 21.1574 12.5347 21.3194V21.3194ZM9.96528 18.5764L20.9028 7.63889C20.7639 7.40741 20.625 7.18148 20.4861 6.96111C20.3472 6.74167 20.1852 6.52778 20 6.31944L9.20139 17.0833C9.31713 17.338 9.43843 17.587 9.56528 17.8306C9.69306 18.0731 9.82639 18.3218 9.96528 18.5764V18.5764ZM8.57639 14.8264L18.5069 4.86111C18.2755 4.67593 18.05 4.50787 17.8306 4.35694C17.6102 4.20694 17.3727 4.0625 17.1181 3.92361L8.33333 12.7083C8.35648 13.0787 8.38519 13.4375 8.41944 13.7847C8.45463 14.1319 8.50694 14.4792 8.57639 14.8264ZM8.57639 9.54861L15 3.09028C14.6528 2.99768 14.3056 2.92824 13.9583 2.88194C13.6111 2.83565 13.2639 2.80093 12.9167 2.77778C11.7824 3.44907 10.8449 4.36343 10.1042 5.52083C9.36343 6.67824 8.85417 8.02083 8.57639 9.54861Z" fill="white"/>
</svg>
