<svg width="24" height="24" viewBox="0 0 24 24" fill="none" xmlns="http://www.w3.org/2000/svg">
<path d="M13.6938 0.000134273C12.9305 0.00682373 12.1563 0.19906 11.4157 0.60282C13.1245 0.478699 14.6267 1.00233 15.0458 2.25995C8.7538 1.4371 2.33827 7.79413 13.497 14.232C16.5246 15.9787 14.4433 20.472 8.4037 17.8987C0.354289 14.4692 0.939055 8.09569 3.83818 4.76083C4.1957 5.36278 4.49335 6.03983 4.76279 6.75057C5.69379 4.37777 7.51611 3.39999 9.33285 2.41405C6.78417 1.21386 4.3519 1.69222 1.9644 2.8245C2.47035 3.10497 2.89721 3.48383 3.26591 3.93387C-2.27891 7.25004 -0.5316 17.6253 6.75253 21.8308C16.0227 27.1829 27.0058 15.3739 16.9164 11.5251C9.52201 8.70428 11.4621 4.69379 15.0595 5.36512L15.1876 7.44642L22.0893 9.36903L23.1101 6.40726C21.697 5.79628 20.5609 5.10956 19.6388 4.26649C19.7007 2.88739 19.1183 1.50746 17.9831 0.128308C18.0201 0.801794 18.0126 1.47509 17.9054 2.14862C16.8209 0.777332 15.2817 -0.0138306 13.694 0.000183074L13.6938 0.000134273ZM15.8148 3.19222C16.9378 3.54711 17.9985 4.21107 18.8421 5.34525C17.1952 6.11771 15.4669 5.08549 15.8148 3.19227V3.19222Z" fill="white"/>
</svg>
