<svg width="23" height="28" viewBox="0 0 23 28" fill="none" xmlns="http://www.w3.org/2000/svg">
<path d="M10.3706 0.682165C9.35427 1.01358 8.2727 1.71907 7.66509 2.46097C6.8475 3.47973 6.40859 4.80809 6.47367 6.31444C8.0543 6.52686 9.97533 7.49292 12.2421 9.3941C13.3485 10.3256 14.0929 11.4329 14.4681 12.5077C14.7312 13.738 14.862 14.8925 14.212 15.6966C17.0358 16.6044 19.5284 15.6852 20.989 13.9208C22.02 12.6777 22.5332 11.0057 22.2765 9.18355C22.0198 7.36136 20.9839 5.35777 18.7913 3.46023C15.5809 0.682775 12.5967 0.0546236 10.3706 0.682165ZM5.08757 7.57249C4.3744 7.77624 3.92878 8.28473 3.66857 9.02684C2.94784 11.0861 4.12247 15.2929 8.01308 18.819L7.34053 19.7315C5.91391 18.4411 4.79883 17.051 3.98582 15.6727C3.32081 16.5286 3.01749 17.4328 3.27362 18.3126C3.66894 19.6798 4.71877 21.0554 6.05067 22.0689C7.38817 23.0807 8.99098 23.7151 10.4026 23.708C11.1149 23.7059 11.5703 23.3938 11.931 22.8252C12.1067 22.5559 12.2451 22.223 12.3594 21.8499C11.7757 21.8747 11.1641 21.8264 10.6162 21.6236L10.8992 20.5492C13.4865 21.2766 15.3627 19.6392 17.0033 17.2109C15.7146 17.3034 14.322 17.0675 12.9001 16.4266C12.5401 16.4865 12.1467 16.4749 11.7254 16.3902C10.5341 16.1553 9.07695 15.3758 7.29072 13.8807L7.92974 12.9375C9.62098 14.3593 10.9459 15.0222 11.8594 15.2043C12.7728 15.3864 13.2076 15.1483 13.445 14.7588C13.6842 14.3756 13.7262 13.6985 13.4401 12.8819C13.1578 12.0574 12.5474 11.134 11.6031 10.3373C9.23759 8.35022 7.34973 7.53635 6.05233 7.47685C5.71761 7.47829 5.36906 7.4947 5.08757 7.57249ZM3.20781 21.4447L2.34908 22.1414C3.67416 24.0521 6.36365 25.0203 8.79011 24.6972C6.93585 23.8529 4.44933 23.0954 3.20781 21.4447ZM1.85139 24.3173L0.988009 25.0086C2.45008 27.109 5.55763 28.0815 8.15423 27.4296L7.85189 26.2517C5.68059 26.7971 2.89137 25.8111 1.85139 24.3173Z" fill="white"/>
</svg>
