<svg width="20" height="25" viewBox="0 0 20 25" fill="none" xmlns="http://www.w3.org/2000/svg">
<path d="M9.99957 25C7.99569 24.9998 6.03808 24.4747 4.38054 23.4927C2.72301 22.5107 1.44201 21.117 0.70364 19.4925C-0.0347318 17.8679 -0.196421 16.0874 0.239536 14.3818C0.675493 12.6761 1.68899 11.124 3.14862 9.92674C4.93803 8.45814 9.33288 5.81395 8.66618 0C16.6665 4.65116 20.6667 9.30233 12.6664 16.2791C13.9997 16.2791 15.9998 16.2791 19.3333 13.407C19.6933 14.3058 20 15.2721 20 16.2791C20 18.592 18.9464 20.8102 17.0709 22.4457C15.1955 24.0812 12.6519 25 9.99957 25Z" fill="white"/>
</svg>
