<svg width="25" height="25" viewBox="0 0 25 25" fill="none" xmlns="http://www.w3.org/2000/svg">
<path d="M25 0C20.0971 0.921083 14.4474 3.32229 9.87456 5.87597C7.46639 7.22362 5.35587 8.60553 3.80761 9.82755C3.03321 10.4443 2.39897 11.0153 1.94277 11.5064C1.48657 12.0032 1.21869 12.4372 1.14997 12.6656C0.660757 14.3045 0.964889 15.9605 1.24359 17.5023C1.7604 20.3803 1.06879 22.5788 0 24.7145C1.36589 24.389 2.4547 23.5838 3.08462 22.0306C3.54298 20.9 3.5787 19.9178 3.70316 18.7414C3.82763 17.5651 4.05221 16.2175 4.91753 14.5614L4.92835 14.5386L4.93917 14.5158C5.4154 13.7963 6.35701 13.2481 7.64498 12.6085C8.92753 11.9689 10.5456 11.2951 12.299 10.6042C15.7516 9.24509 19.7237 7.82321 22.5864 6.53266C23.6687 4.81384 24.4264 2.29328 25 0V0ZM22.0236 7.89173C19.2258 9.09091 15.7137 10.3529 12.6345 11.5635C10.8919 12.2487 9.2901 12.9169 8.05626 13.5336C6.83324 14.1446 5.97279 14.767 5.75091 15.0868C5.38293 15.7892 5.15023 16.4116 4.99329 16.9884C9.50657 16.6172 15.5622 15.1725 19.675 13.1852C21.1578 11.4893 21.6719 9.77615 22.0236 7.89173V7.89173ZM18.8849 14.6757C14.6097 16.5144 9.03576 17.7193 4.77141 18.0219C4.72271 18.3074 4.69024 18.5815 4.66318 18.8556C4.64153 19.0555 4.6253 19.2611 4.60365 19.4609C8.52166 19.8892 11.9797 19.6894 15.7624 19.0898C17.5266 17.8049 18.4574 16.2574 18.8849 14.6757V14.6757ZM14.6422 20.2832C11.2708 20.7458 8.06167 20.8657 4.49001 20.4774C4.45213 20.7344 4.40342 20.9913 4.3439 21.254C6.28666 22.3504 9.65268 22.7273 11.958 22.6587C13.5923 21.9507 14.2038 21.2426 14.6422 20.2832ZM4.04518 22.2476C3.98294 22.3675 3.87525 22.6302 3.81735 22.7558C4.5766 23.9093 6.45442 24.5946 8.60283 25C9.75009 24.5432 10.1343 24.1149 10.5781 23.6866C8.42966 23.6238 5.8862 23.2469 4.04626 22.2476H4.04518Z" fill="white"/>
</svg>
