<svg width="22" height="25" viewBox="0 0 22 25" fill="none" xmlns="http://www.w3.org/2000/svg">
<path d="M21.9999 20.6421C21.9999 20.6421 20.7297 25 10.4282 25C0.127034 25 -0.0118581 21.4167 0.000490231 21.1199C0.127088 18.0682 5.53529 19.2165 5.53529 19.2165C5.53529 19.2165 3.42351 19.3122 3.42351 21.0346C3.42351 22.4699 5.89764 23.5883 10.8921 23.7137C21.056 23.9689 22 20.642 22 20.642L21.9999 20.6421ZM14.086 0C14.086 0 17.7691 0.331396 17.2407 3.96084C17.2407 3.96084 19.578 5.34136 19.4071 7.25527C19.236 9.16895 17.658 11.4312 12.6268 12.1899C12.6268 12.1899 15.5496 11.4623 15.6562 9.98237C15.7705 8.40337 12.772 7.73359 12.772 6.25044C12.772 4.76729 16.4869 4.55752 16.1884 2.06245C15.9909 0.413574 14.086 0 14.086 0ZM11.1406 7.54482C11.375 7.43472 10.9417 7.14873 10.9665 6.64473C10.995 6.075 11.255 5.72432 10.8876 5.7332C10.6 5.74009 10.1744 6.23149 10.2443 6.73184C10.3142 7.23208 10.8404 7.68584 11.1406 7.54482H11.1406ZM10.7511 9.09204C10.4569 9.26787 11.2129 9.44927 11.3943 9.9773C11.5994 10.5741 11.3719 11.0059 11.9039 10.8993C12.3204 10.8161 12.7287 10.195 12.4103 9.69604C12.092 9.19702 11.1281 8.8668 10.7511 9.09204ZM9.52365 7.97559C9.72772 7.82227 9.23905 7.62729 9.14923 7.12974C9.04759 6.56729 9.22224 6.17344 8.865 6.254C8.58566 6.31729 8.28103 6.88086 8.46287 7.35625C8.64466 7.83154 9.26208 8.17207 9.52365 7.97559ZM21.2756 17.6899C19.8025 15.3728 15.3222 14.731 12.1109 14.6392C9.31749 14.5594 5.76438 14.3841 5.76438 13.472C5.76438 12.231 9.73556 12.9479 9.68439 11.4173C9.63854 10.0462 5.93049 10.0021 6.44633 6.61143C6.68557 5.03848 8.81808 4.18467 10.6889 3.8083C12.5597 3.43203 14.939 2.69434 14.9842 1.76123C15.0296 0.828076 13.9308 0.50918 13.9308 0.50918C13.9308 0.50918 14.5779 0.860107 14.323 1.54575C14.0681 2.23154 13.1923 2.27935 10.6086 2.3311C8.4196 2.37505 5.24333 2.61431 3.15286 4.62354C0.962374 6.729 1.31167 10.1737 6.17606 11.5536C6.17606 11.5536 0.926348 12.3739 1.02497 15.0301C1.12279 17.6695 4.50329 18.3037 9.75864 18.403C15.0894 18.5037 17.109 18.986 17.109 20.1288C17.109 21.0554 15.4931 21.5768 13.0379 21.6563C10.4585 21.7403 8.64268 21.4013 8.62555 20.7473C8.60257 19.8691 11.0807 20.3008 11.0807 20.3008C9.56273 19.7465 7.57121 19.8545 7.49234 20.9148C7.43731 21.655 8.19706 22.2818 10.1879 22.5815C13.2612 23.0439 17.2443 23.0121 19.8257 21.5768C21.7515 20.5061 21.9739 18.7882 21.2756 17.6899V17.6899Z" fill="white"/>
</svg>
