<svg width="14" height="29" viewBox="0 0 14 29" fill="none" xmlns="http://www.w3.org/2000/svg">
<path d="M2.37218 7.14515C3.59696 7.43495 4.1795 8.91609 4.20759 10.3488C3.87191 10.8662 3.84465 11.5008 3.93815 12.0878L2.06376 12.0462C0.677916 10.3049 0.320983 7.05871 1.97144 7.09527C2.10144 7.09741 2.2362 7.11447 2.37258 7.14608L2.37218 7.14515ZM4.13251 12.7931L2.22431 12.7501C2.49577 15.8584 6.13833 15.3702 4.13245 12.793L4.13251 12.7931ZM6.16089 20.9858C6.02449 20.9542 5.88973 20.9372 5.75972 20.9351C4.10929 20.8984 4.46619 24.1445 5.85209 25.8859L7.72649 25.9275C7.63299 25.3405 7.66087 24.7064 7.99581 24.1884C7.96781 22.7558 7.38527 21.2747 6.1604 20.9848L6.16089 20.9858ZM7.92117 26.6338L6.01299 26.5907C6.2851 29.698 9.92746 29.2104 7.92042 26.6333L7.92117 26.6338ZM10.669 14.2321C9.47558 14.1271 9.37572 15.4969 9.84393 17.0009C10.378 17.6602 10.6282 18.3402 10.7338 18.9289L12.7019 19.5151C13.56 18.1397 12.8081 14.8293 11.0766 14.3141C10.9399 14.2727 10.8035 14.2454 10.6704 14.233L10.669 14.2321ZM10.7743 19.61C9.55091 21.66 13.5703 23.3983 12.7751 20.2047L10.7743 19.61ZM5.84843 0.506673C4.76302 0.67085 5.08551 2.13546 5.94536 3.61356C6.61496 4.18562 7.03787 4.84654 7.3078 5.44123L9.21977 5.60536C9.56961 3.9602 7.91681 0.641479 6.23242 0.498219C6.09928 0.485787 5.9705 0.488268 5.84907 0.505603L5.84843 0.506673ZM7.54846 6.15012C7.08016 8.59238 11.1512 9.50119 9.49428 6.3172L7.54917 6.1506L7.54846 6.15012Z" fill="white"/>
</svg>
