<svg width="19" height="21" viewBox="0 0 19 21" fill="none" xmlns="http://www.w3.org/2000/svg">
<path d="M3.64583 0C5.5 0 6.42708 2.25 5.125 3.5625C3.8125 4.86458 1.5625 3.9375 1.5625 2.08333C1.5625 1.5308 1.78199 1.00089 2.17269 0.610194C2.56339 0.219493 3.0933 0 3.64583 0M2.08333 5.20833H5.20833C5.76087 5.20833 6.29077 5.42783 6.68147 5.81853C7.07217 6.20923 7.29167 6.73913 7.29167 7.29167V13.0208H5.72917V20.8333H1.5625V13.0208H0V7.29167C0 6.73913 0.219493 6.20923 0.610194 5.81853C1.00089 5.42783 1.5308 5.20833 2.08333 5.20833M18.2292 6.25H11.9792V8.33333H18.2292M18.2292 9.375H15.1042V11.4583H18.2292M18.2292 0H11.9792V2.08333H18.2292M18.2292 3.125H15.1042V5.20833H18.2292M18.2292 12.5H11.9792V14.5833H18.2292M18.2292 18.75H11.9792V20.8333H18.2292M18.2292 15.625H15.1042V17.7083H18.2292" fill="#252B33"/>
</svg>
