<svg width="23" height="19" viewBox="0 0 23 19" fill="none" xmlns="http://www.w3.org/2000/svg">
<path d="M17.7083 14.5833V11.4583H14.5833V9.375H17.7083V6.25H19.7917V9.375H22.9167V11.4583H19.7917V14.5833H17.7083ZM10.4167 18.75L7.10937 15.7812C5.85937 14.6528 4.7875 13.6458 3.89375 12.7604C2.99931 11.875 2.26146 11.0417 1.68021 10.2604C1.09826 9.47917 0.672917 8.72396 0.404167 7.99479C0.134722 7.26562 0 6.50174 0 5.70313C0 4.07118 0.546875 2.7125 1.64062 1.62708C2.73437 0.542361 4.09722 0 5.72917 0C6.63194 0 7.49132 0.186458 8.30729 0.559375C9.12326 0.932986 9.82639 1.46701 10.4167 2.16146C11.0069 1.46701 11.7101 0.932986 12.526 0.559375C13.342 0.186458 14.2014 0 15.1042 0C16.5799 0 17.8167 0.446875 18.8146 1.34063C19.8132 2.23507 20.434 3.28125 20.6771 4.47917C20.3646 4.35764 20.0521 4.26632 19.7396 4.20521C19.4271 4.14479 19.1233 4.11458 18.8281 4.11458C17.0747 4.11458 15.5816 4.72639 14.349 5.95C13.1163 7.17431 12.5 8.66319 12.5 10.4167C12.5 11.3194 12.6823 12.1743 13.0469 12.9812C13.4115 13.7889 13.9236 14.4792 14.5833 15.0521C14.2535 15.3472 13.8236 15.725 13.2937 16.1854C12.7646 16.6451 12.309 17.0486 11.9271 17.3958L10.4167 18.75Z" fill="black"/>
</svg>
