<svg width="25" height="25" viewBox="0 0 25 25" fill="none" xmlns="http://www.w3.org/2000/svg">
<path d="M12.5 0C14.1415 0 15.767 0.323322 17.2835 0.951506C18.8001 1.57969 20.1781 2.50043 21.3388 3.66117C22.4996 4.8219 23.4203 6.19989 24.0485 7.71646C24.6767 9.23303 25 10.8585 25 12.5C25 15.8152 23.683 18.9946 21.3388 21.3388C18.9946 23.683 15.8152 25 12.5 25C10.8585 25 9.23303 24.6767 7.71646 24.0485C6.19989 23.4203 4.8219 22.4996 3.66117 21.3388C1.31696 18.9946 0 15.8152 0 12.5C0 9.18479 1.31696 6.00537 3.66117 3.66117C6.00537 1.31696 9.18479 0 12.5 0M12.5 2.5C7.4 2.5 3.1875 6.3125 2.575 11.25H7.6625C8.2125 9.0875 10.175 7.5 12.5 7.5C14.825 7.5 16.7875 9.0875 17.3375 11.25H22.425C21.8125 6.3125 17.6 2.5 12.5 2.5ZM12.5 22.5C17.6 22.5 21.8125 18.6875 22.425 13.75H17.3375C16.7875 15.9125 14.825 17.5 12.5 17.5C10.175 17.5 8.2125 15.9125 7.6625 13.75H2.575C3.1875 18.6875 7.4 22.5 12.5 22.5ZM12.5 10C11.837 10 11.2011 10.2634 10.7322 10.7322C10.2634 11.2011 10 11.837 10 12.5C10 13.163 10.2634 13.7989 10.7322 14.2678C11.2011 14.7366 11.837 15 12.5 15C13.163 15 13.7989 14.7366 14.2678 14.2678C14.7366 13.7989 15 13.163 15 12.5C15 11.837 14.7366 11.2011 14.2678 10.7322C13.7989 10.2634 13.163 10 12.5 10Z" fill="white"/>
</svg>
