<svg width="20" height="25" viewBox="0 0 20 25" fill="none" xmlns="http://www.w3.org/2000/svg">
<path d="M4.44444 9.80902C5.55555 9.80902 8.88889 6.9155 6.66667 4.74536C7.77778 4.02197 7.77778 3.29859 10 3.29859C12.2222 3.29859 14.4444 5.46874 14.4444 6.9155C14.4444 8.36226 12.2222 9.80902 8.88889 11.2558C5.55556 12.7025 0 15.5961 0 19.213C0 22.1065 3.33333 25 8.88889 25C14.4444 25 20 23.5532 20 19.213C20 16.3194 15.5555 14.8727 13.3333 14.8727C9.99999 14.8727 7.77778 16.3194 6.66667 18.4896C10 15.5961 16.6667 15.5961 16.6667 19.213C16.6667 21.3831 13.3333 22.8299 8.88889 22.8299C6.66667 22.8299 4.44444 21.3831 4.44444 19.213C4.44444 17.0428 7.77777 14.8727 11.1111 13.4259C14.4444 11.9792 17.7778 9.80902 17.7778 7.63888C17.7778 4.74536 14.4444 1.85183 10 1.85183C7.77778 1.85183 5.55555 3.29859 4.44444 4.02197C3.33333 4.74536 1.11111 4.74536 1.11111 6.9155C1.11111 7.63888 3.33333 9.80902 4.44444 9.80902Z" fill="white"/>
<path d="M12.4256 0.925927H8.88889L7.49707 0H13.8541L12.4256 0.925927Z" fill="white"/>
<path d="M10.7114 17.5926C9.4485 17.5926 8.42564 18.4213 8.42564 19.4445C8.42564 19.9074 8.6485 20.3241 8.99707 20.6436V21.2963H9.71136V20.6019H10.3571V21.2963H11.0714V20.6019H11.7114V21.2963H12.4256V20.6436C12.7912 20.3142 12.9946 19.8874 12.9971 19.4445C12.9971 18.4213 11.9742 17.5926 10.7114 17.5926ZM9.85421 19.4445C9.53993 19.4445 9.28278 19.2361 9.28278 18.9815C9.28278 18.7269 9.53993 18.5185 9.85421 18.5185C10.1685 18.5185 10.4256 18.7269 10.4256 18.9815C10.4256 19.2361 10.1685 19.4445 9.85421 19.4445ZM10.2828 20.0232L10.7114 19.4445L11.1399 20.0232H10.2828ZM11.5685 19.4445C11.2542 19.4445 10.9971 19.2361 10.9971 18.9815C10.9971 18.7269 11.2542 18.5185 11.5685 18.5185C11.8828 18.5185 12.1399 18.7269 12.1399 18.9815C12.1399 19.2361 11.8828 19.4445 11.5685 19.4445Z" fill="white"/>
</svg>
