<svg width="22" height="24" viewBox="0 0 22 24" fill="none" xmlns="http://www.w3.org/2000/svg">
<path d="M1.38696 0C0.507324 1.53809 0 3.31631 0 5.21387C0 9.13442 2.14712 12.5624 5.32832 14.3813C5.348 14.0442 5.37324 13.7059 5.40767 13.3682C2.70601 11.6609 0.912353 8.64766 0.912353 5.21387C0.912353 3.28877 1.48022 1.50469 2.45352 0H1.38691H1.38696ZM4.75757 0C3.50708 1.38052 2.73735 3.20483 2.73735 5.21387C2.73735 7.70801 3.91177 9.9334 5.73735 11.3647L5.74028 11.3525C5.81899 11.0298 5.90986 10.7174 6.01811 10.4187C4.56645 9.15425 3.64995 7.29243 3.64995 5.21387C3.64995 3.12168 4.59009 1.26675 6.06382 0H4.75767H4.75757ZM15.0375 0C16.5084 1.26709 17.4514 3.12515 17.4514 5.21387C17.4514 7.22324 16.5947 9.03013 15.2267 10.2905C15.337 10.5973 15.4276 10.9192 15.5029 11.2518C17.2484 9.81792 18.3638 7.64424 18.3638 5.21396C18.3638 3.20601 17.5918 1.38096 16.342 9.76957e-05H15.0374L15.0375 0ZM18.6218 0C19.6013 1.50718 20.1889 3.29038 20.1889 5.21387C20.1889 8.60532 18.4398 11.5862 15.7943 13.3042C15.8209 13.6478 15.8399 13.993 15.8523 14.3356C18.9903 12.5054 21.1028 9.1022 21.1028 5.21392C21.1028 3.31328 20.5781 1.53579 19.6929 4.88013e-05H18.6218L18.6218 0ZM10.5499 0.111328C7.73613 0.111328 5.44585 2.40166 5.44585 5.21543C5.44585 6.61221 6.0103 7.88013 6.9229 8.80283C7.12456 8.57275 7.35454 8.37231 7.61108 8.20762C6.83745 7.44785 6.35835 6.3894 6.35835 5.21543C6.35835 2.89478 8.22925 1.02383 10.5499 1.02383C12.8706 1.02383 14.7416 2.89478 14.7416 5.21543C14.7416 6.34629 14.2968 7.36943 13.5727 8.12217C13.8407 8.27549 14.0802 8.46558 14.2899 8.6853C15.1359 7.77388 15.6541 6.55361 15.6541 5.21538C15.6541 2.40161 13.3638 0.111377 10.55 0.111377L10.5499 0.111328ZM10.3455 2.82441C9.2897 2.96113 8.34497 4.18721 8.34497 5.76777C8.34497 6.63916 8.64639 7.41099 9.09116 7.94526L9.58862 8.54185L8.82417 8.6854C8.2439 8.79409 7.81733 9.10103 7.45542 9.59629C7.0936 10.0916 6.81953 10.7787 6.62681 11.5692C6.27583 13.0097 6.20024 14.7674 6.18896 16.3117H8.09321L8.12519 16.7344L8.60889 23.2041H12.6953L13.1226 16.7375L13.1515 16.3117H14.9642C14.9632 14.7492 14.9452 12.9674 14.627 11.5159C14.4527 10.7202 14.1879 10.0345 13.8213 9.54448C13.4549 9.05449 13.0082 8.74917 12.3581 8.64878L11.5798 8.52813L12.0727 7.91167C12.4981 7.37993 12.7852 6.61797 12.7852 5.76782C12.7852 4.08252 11.7277 2.82739 10.5651 2.82739C10.4346 2.82739 10.3563 2.8229 10.3454 2.82432L10.3455 2.82441Z" fill="white"/>
</svg>
