<svg width="25" height="25" viewBox="0 0 25 25" fill="none" xmlns="http://www.w3.org/2000/svg">
<path d="M12.0872 0.0141448C11.5712 -0.0282083 11.1018 0.0174667 10.614 0.248333C10.389 0.344277 10.1802 0.474246 9.99483 0.633663L9.75264 0.816362L9.74182 0.86785L8.92785 1.72571L4.20384 6.63618L4.20217 6.63784C4.09282 6.75205 3.99677 6.87825 3.91587 7.01403L3.79353 7.14192L2.3953 10.2694L2.19305 10.722L0.828117 13.2408C0.813586 13.2667 0.800255 13.2933 0.788168 13.3205C0.621712 13.6344 0.515181 13.9633 0.455256 14.3004L0.45276 14.3162L0 17.6048L0.43445 18.9069C0.774814 19.9319 1.35151 20.8638 2.11815 21.6258L2.89217 22.3982C3.41976 22.9284 4.03102 23.3686 4.70154 23.7012L5.83511 24.2625L5.8376 24.2642C6.80796 24.7507 7.87935 25.0027 8.96531 25H8.96697L11.6694 24.9933V25H18.9318C19.6726 24.9875 20.5282 24.6113 21.0308 24.0391C21.2081 23.8782 21.3689 23.7002 21.5111 23.5077L21.5752 23.4213L24.3367 20.2838C24.6026 19.9826 24.7966 19.6249 24.9038 19.238C25.0111 18.851 25.0289 18.4448 24.9559 18.0499L24.8585 17.5292C24.8474 17.373 24.826 17.2176 24.7944 17.0642V17.06L24.4474 15.3036L24.4523 15.297L23.68 11.4204C23.5125 10.5512 23.0309 9.77285 22.3267 9.23466L19.3055 6.55479L17.383 3.00627L17.368 2.98301C17.0176 2.42495 16.7022 1.96654 16.2744 1.60861C15.8366 1.24155 15.3381 1.02481 14.7097 0.819684L13.6718 0.454285L13.2474 0.305634L13.2416 0.303973C13.134 0.261211 13.0249 0.22243 12.9145 0.187709C12.6508 0.104059 12.3796 0.0464809 12.1047 0.0158058L12.0963 0.0149753L12.0872 0.0141448ZM18.9102 23.3391H13.3339V20.7007L20.9867 19.4957L23.2339 17.8938L23.318 18.3472V18.3489C23.3729 18.6528 23.2897 18.9576 23.0882 19.1851L20.2785 22.3774L20.1719 22.5211L20.1703 22.5227C20.087 22.6365 19.9913 22.7395 19.8873 22.8317L19.8482 22.8665L19.7833 22.9405L19.7808 22.9421C19.6027 23.1472 19.1998 23.3324 18.9102 23.3391ZM8.76473 16.2885L12.5017 20.0173L3.34659 17.5259L4.00409 14.9266C4.11229 14.4615 4.40359 14.0712 4.8114 13.8221L8.34026 11.7127V15.2671C8.34026 15.6491 8.49007 16.0145 8.76473 16.2885ZM8.34026 11.7127L6.17218 6.98746L10.1313 2.87422L10.1879 2.81443L8.34026 11.7127ZM14.316 16.2304C13.7667 15.9813 13.4837 15.3584 13.6585 14.7771L15.4646 8.77459L21.9663 11.4453C21.9996 11.54 22.0271 11.638 22.0462 11.7385V11.7401L22.6729 14.8876L22.6696 14.8925L23.0816 16.9811L20.6622 18.7051L20.003 18.8098L14.316 16.2304ZM15.7059 7.9757L15.8308 7.56047L16.4067 4.69707L17.9814 7.60199L20.7279 10.0385L15.7059 7.9757ZM2.00413 18.3564H3.2359L11.6694 20.6509V23.3324L8.96447 23.3391H8.96281C8.13724 23.3414 7.3227 23.15 6.58499 22.7802L5.43977 22.213L5.43728 22.2121C4.92975 21.9598 4.46722 21.6259 4.06818 21.2239L3.29416 20.4516C2.71235 19.872 2.2743 19.1647 2.01495 18.3863L2.00413 18.3564ZM12.6515 1.85775L13.1217 2.02218C13.3939 2.11685 13.7651 2.24806 14.1637 2.38841L14.1737 2.39173L14.1837 2.39505C14.748 2.57941 15.0085 2.71561 15.2049 2.88004C15.3755 3.02288 15.5378 3.22052 15.7817 3.59007L15.0235 7.35784L12.862 14.5371C12.7197 15.0102 12.7537 15.5186 12.9577 15.9686C13.1618 16.4186 13.5222 16.7797 13.9723 16.9853L17.4928 18.5814L12.8046 19.1436L9.35398 15.7006C9.29652 15.6437 9.25096 15.5761 9.21995 15.5015C9.18894 15.4269 9.17311 15.347 9.17338 15.2662V11.7966L11.2516 1.78799C11.334 1.74232 11.4014 1.71491 11.4621 1.69664C11.5703 1.66508 11.7085 1.64931 11.9424 1.66758C12.1063 1.68585 12.2778 1.72903 12.4184 1.77221C12.4867 1.79367 12.5541 1.81749 12.6207 1.84363L12.6282 1.84695L12.6515 1.85775ZM2.29792 14.0264L2.31207 14.0006V13.999L3.68533 11.4653L5.15597 8.17168C5.18185 8.10904 5.21815 8.0512 5.26333 8.00061L5.56878 7.6676L7.27328 11.3822L4.38361 13.1096L4.37695 13.1137C4.08236 13.2914 3.82615 13.5258 3.62325 13.8032C3.42034 14.0807 3.27481 14.3956 3.19512 14.7298L2.69825 16.6954H1.80438L2.09568 14.5745C2.12787 14.3928 2.19062 14.2179 2.28128 14.0571L2.28544 14.0496L2.29792 14.0264Z" fill="white"/>
</svg>
