<svg width="19" height="23" viewBox="0 0 19 23" fill="none" xmlns="http://www.w3.org/2000/svg">
<path d="M9.375 0L18.75 4.16667V10.4167C18.75 16.1979 14.75 21.6042 9.375 22.9167C4 21.6042 0 16.1979 0 10.4167V4.16667L9.375 0ZM9.375 2.27083L2.08333 5.52083V10.6458C2.08333 15.1458 5.46875 19.7917 9.375 20.8333C13.2812 19.7917 16.6667 15.1458 16.6667 10.6458V5.52083L9.375 2.27083M13.5417 13.5417V15.1979C13.5 15.4271 13.3125 15.5833 13.0521 15.625H5.69792C5.4375 15.5833 5.25 15.4271 5.20833 15.1979V13.5417H13.5417ZM14.5833 7.29167L13.5417 12.5H5.20833L4.16667 7.29167L6.94792 10.0729L9.375 7.64583L11.8021 10.0729L14.5833 7.29167Z" fill="black"/>
</svg>
