<svg width="21" height="17" viewBox="0 0 21 17" fill="none" xmlns="http://www.w3.org/2000/svg">
<path d="M8.80208 11.9792C9.21875 12.3958 9.75694 12.5997 10.4167 12.5906C11.0764 12.5823 11.5625 12.3437 11.875 11.875L16.276 5.28646C16.4323 5.0434 16.4104 4.82222 16.2104 4.62292C16.0111 4.42292 15.7899 4.40104 15.5469 4.55729L8.95833 8.95833C8.48958 9.27083 8.24236 9.74826 8.21667 10.3906C8.19028 11.033 8.38542 11.5625 8.80208 11.9792ZM3.22917 16.6667C2.86458 16.6667 2.51736 16.5799 2.1875 16.4062C1.85764 16.2326 1.59722 15.9896 1.40625 15.6771C0.954861 14.8958 0.607639 14.067 0.364583 13.1906C0.121528 12.3135 0 11.3889 0 10.4167C0 8.97569 0.273611 7.62569 0.820833 6.36667C1.36736 5.10833 2.11389 4.0059 3.06042 3.05937C4.00625 2.11354 5.11285 1.36701 6.38021 0.819792C7.64757 0.273264 8.99306 0 10.4167 0C11.1979 0 11.9531 0.0822916 12.6823 0.246875C13.4115 0.412153 14.1146 0.659722 14.7917 0.989583C15.1563 1.18056 15.3687 1.44097 15.4292 1.77083C15.4903 2.10069 15.3993 2.41319 15.1562 2.70833C15.0174 2.86458 14.8264 2.96007 14.5833 2.99479C14.3403 3.02951 14.1233 3.00347 13.9323 2.91667C13.3767 2.63889 12.8038 2.43056 12.2135 2.29167C11.6233 2.15278 11.0243 2.08333 10.4167 2.08333C8.10764 2.08333 6.14167 2.89479 4.51875 4.51771C2.89514 6.14132 2.08333 8.10764 2.08333 10.4167C2.08333 11.1458 2.18299 11.8663 2.38229 12.5781C2.58229 13.2899 2.86458 13.9583 3.22917 14.5833H17.6042C18.0035 13.9236 18.2944 13.2378 18.4771 12.526C18.659 11.8142 18.75 11.0764 18.75 10.3125C18.75 9.70486 18.6764 9.11042 18.5292 8.52917C18.3812 7.94722 18.1684 7.38715 17.8906 6.84896C17.7691 6.62326 17.7344 6.38889 17.7865 6.14583C17.8385 5.90278 17.9601 5.70312 18.151 5.54687C18.4288 5.30382 18.7326 5.23437 19.0625 5.33854C19.3924 5.44271 19.6354 5.6684 19.7917 6.01562C20.1042 6.67535 20.3472 7.35694 20.5208 8.06042C20.6944 8.76319 20.7986 9.49653 20.8333 10.2604C20.8333 11.25 20.7163 12.1962 20.4823 13.099C20.2476 14.0017 19.8958 14.8611 19.4271 15.6771C19.2361 15.9896 18.9757 16.2326 18.6458 16.4062C18.316 16.5799 17.9687 16.6667 17.6042 16.6667H3.22917Z" fill="black"/>
</svg>
