<svg width="21" height="12" viewBox="0 0 21 12" fill="none" xmlns="http://www.w3.org/2000/svg">
<path d="M18.75 5.20833C18.4996 5.21012 18.2515 5.25705 18.0177 5.34688L15.5198 3.30208C15.5812 3.07917 15.625 2.84792 15.625 2.60417C15.625 1.16042 14.4646 0 13.0208 0C11.5771 0 10.4167 1.16042 10.4167 2.60417C10.4167 3.01667 10.5208 3.40104 10.6896 3.74687L7.65937 7.32812C7.53808 7.30542 7.41506 7.29322 7.29167 7.29167C7.10521 7.29167 6.92917 7.32292 6.75833 7.36875L4.08854 4.69896C4.13542 4.52917 4.16667 4.35312 4.16667 4.16667C4.16667 3.0125 3.2375 2.08333 2.08333 2.08333C0.929167 2.08333 0 3.0125 0 4.16667C0 5.32083 0.929167 6.25 2.08333 6.25C2.26979 6.25 2.44583 6.21875 2.61667 6.17292L5.28646 8.84271C5.23639 9.01577 5.2101 9.19485 5.20833 9.375C5.20833 10.5292 6.1375 11.4583 7.29167 11.4583C8.44583 11.4583 9.375 10.5292 9.375 9.375C9.375 9.12812 9.325 8.89583 9.24687 8.67604L12.2812 5.09062C12.5177 5.15937 12.7625 5.20833 13.0208 5.20833C13.4319 5.20606 13.8365 5.10571 14.201 4.91562L16.7 6.96042C16.6804 7.06981 16.6693 7.18056 16.6667 7.29167C16.6667 8.44583 17.5958 9.375 18.75 9.375C19.9042 9.375 20.8333 8.44583 20.8333 7.29167C20.8333 6.1375 19.9042 5.20833 18.75 5.20833Z" fill="#252B33"/>
</svg>
