<svg width="23" height="21" viewBox="0 0 23 21" fill="none" xmlns="http://www.w3.org/2000/svg">
<path d="M5.0338 0L17.4296 12.3958L19.638 10.1875L21.1067 11.6563L18.5338 14.2292L21.8463 17.5417C22.2525 17.9479 22.2525 18.6042 21.8463 19.0104L21.1067 19.75C21.0103 19.8466 20.8959 19.9232 20.7699 19.9754C20.6438 20.0277 20.5088 20.0546 20.3723 20.0546C20.2359 20.0546 20.1008 20.0277 19.9748 19.9754C19.8488 19.9232 19.7343 19.8466 19.638 19.75L16.2838 16.4479L13.7421 19.0208L12.2734 17.5521L14.4817 15.3437L2.08588 2.94792V0H5.0338ZM15.1275 7.875L20.065 2.9375V0H17.1171L12.1796 4.9375L15.1275 7.875ZM9.9713 13.0833L7.02338 10.0938L4.7213 12.3958L2.51296 10.1875L1.04421 11.6563L3.61713 14.2292L0.304629 17.5521C0.208063 17.6485 0.131451 17.7629 0.0791786 17.8889C0.0269062 18.0149 0 18.15 0 18.2865C0 18.4229 0.0269062 18.558 0.0791786 18.684C0.131451 18.81 0.208063 18.9245 0.304629 19.0208L1.04421 19.7604C1.45046 20.1667 2.10671 20.1667 2.51296 19.7604L5.86713 16.4479L8.4088 19.0208L9.87755 17.5521L7.66921 15.3437L9.9713 13.0833V13.0833Z" fill="black"/>
</svg>
