<svg width="20" height="26" viewBox="0 0 20 26" fill="none" xmlns="http://www.w3.org/2000/svg">
<path d="M10.825 0.647102C10.35 0.227628 9.6375 0.227628 9.1625 0.647102C3.0625 6.11297 0 10.867 0 14.9092C0 21.2395 4.75 25.3325 10 25.3325C15.25 25.3325 20 21.2395 20 14.9092C20 10.867 16.9375 6.11297 10.825 0.647102ZM4.7875 15.1634C5.25 15.1634 5.625 15.4939 5.7125 15.9515C6.225 18.7735 8.5625 19.7395 10.2625 19.5997C10.8 19.5743 11.25 20.0065 11.25 20.553C11.25 21.0615 10.85 21.481 10.35 21.5064C7.6875 21.6716 4.575 20.1209 3.8625 16.2693C3.84078 16.133 3.84842 15.9936 3.88491 15.8606C3.92139 15.7276 3.98584 15.6043 4.07381 15.4991C4.16177 15.3939 4.27115 15.3095 4.39437 15.2515C4.5176 15.1935 4.65173 15.1635 4.7875 15.1634V15.1634Z" fill="white"/>
</svg>
