<svg width="22" height="22" viewBox="0 0 22 22" fill="none" xmlns="http://www.w3.org/2000/svg">
<path d="M10.9375 0C8.73662 0 6.93359 1.80303 6.93359 4.00391C6.93359 5.26426 7.52554 6.39336 8.44424 7.12891H4.6875L0 21.1914H21.875L17.1875 7.12891H13.4308C14.3495 6.39336 14.9414 5.26426 14.9414 4.00391C14.9414 1.80303 13.1384 0 10.9375 0ZM10.9375 1.75781C12.1884 1.75781 13.1836 2.75303 13.1836 4.00391C13.1836 5.25479 12.1884 6.25 10.9375 6.25C9.68662 6.25 8.69141 5.25479 8.69141 4.00391C8.69141 2.75303 9.68662 1.75781 10.9375 1.75781ZM6.9231 11.6675H8.07056V13.2917L9.72451 11.6674H11.0567L8.91396 13.7744L11.2772 16.1168H9.84082L8.07056 14.3645V16.1168H6.9231V11.6675ZM12.7792 12.7046C13.0117 12.7046 13.2164 12.7502 13.3932 12.8416C13.5699 12.933 13.7319 13.077 13.879 13.2737V12.7791H14.9519V15.7802C14.9519 16.3166 14.7819 16.7259 14.4422 17.008C14.1044 17.2922 13.6137 17.4341 12.9699 17.4341C12.7613 17.4341 12.5598 17.4183 12.3649 17.3865C12.1657 17.3536 11.9693 17.3048 11.7778 17.2405V16.4089C11.9646 16.5163 12.1475 16.5958 12.3262 16.6474C12.5051 16.701 12.6849 16.7279 12.8657 16.7279C13.2154 16.7279 13.4717 16.6514 13.6346 16.4984C13.7975 16.3455 13.879 16.1061 13.879 15.7802V15.5507C13.732 15.7454 13.57 15.8884 13.3932 15.9798C13.2164 16.0711 13.0117 16.1169 12.7792 16.1169C12.3719 16.1169 12.0352 15.957 11.769 15.6372C11.5027 15.3153 11.3696 14.906 11.3696 14.4093C11.3696 13.9106 11.5027 13.5023 11.769 13.1844C12.0352 12.8646 12.3719 12.7046 12.7792 12.7046V12.7046ZM13.1756 13.4734C12.9551 13.4734 12.7832 13.555 12.66 13.7178C12.5368 13.8808 12.4752 14.1113 12.4752 14.4093C12.4752 14.7153 12.5348 14.9477 12.6541 15.1066C12.7733 15.2636 12.9472 15.3421 13.1756 15.3421C13.3981 15.3421 13.5709 15.2605 13.6942 15.0977C13.8173 14.9347 13.879 14.7053 13.879 14.4093C13.879 14.1112 13.8173 13.8808 13.6941 13.7179C13.5709 13.5549 13.3981 13.4734 13.1756 13.4734H13.1756Z" fill="#252B33"/>
</svg>
